<svg width="1494" height="500" viewBox="0 0 1494 500" fill="none" xmlns="http://www.w3.org/2000/svg">
<path fill-rule="evenodd" clip-rule="evenodd" d="M1493.5 0H0V500H1493.5V0ZM191.233 202.279C192.342 201.744 193.544 201.454 194.803 201.454C195.847 201.454 196.846 201.665 197.778 202.036C198.943 202.453 199.91 203.144 200.695 203.93L200.731 203.966L211.854 215.67L209.78 218.381C205.545 223.915 200.207 228.116 193.817 230.951L193.804 230.957C187.448 233.749 180.073 235.076 171.789 235.076C164.121 235.076 157.101 233.781 150.798 231.107L150.781 231.1L150.765 231.093C144.595 228.408 139.287 224.706 134.892 219.977L134.878 219.962L134.863 219.947C130.531 215.186 127.227 209.595 124.931 203.224L124.928 203.215C122.629 196.788 121.5 189.873 121.5 182.505C121.5 174.984 122.724 167.988 125.226 161.564C127.711 155.145 131.229 149.553 135.798 144.841C140.373 140.123 145.838 136.474 152.146 133.885C158.503 131.276 165.437 130 172.897 130C176.693 130 180.305 130.346 183.722 131.055C187.114 131.708 190.312 132.645 193.304 133.878C196.289 135.064 199.062 136.521 201.614 138.254C202.794 139.056 203.919 139.894 204.986 140.769V131.043H288.482V156.515H261.752V234.033H231.716V156.515H204.986V154.026L201.239 159.054L201.208 159.094C200.526 159.962 199.739 160.743 198.866 161.441L198.8 161.494L198.733 161.543C197.147 162.706 195.285 163.035 193.629 163.035C192.23 163.035 190.878 162.718 189.624 162.091C188.811 161.685 187.972 161.215 187.11 160.688L187.043 160.647L186.977 160.603C186.265 160.128 185.458 159.623 184.553 159.089L184.46 159.033L184.369 158.973C183.778 158.579 182.968 158.167 181.886 157.77L181.809 157.742L181.734 157.711C180.773 157.313 179.535 156.944 177.98 156.633L177.97 156.631L177.961 156.629C176.601 156.35 174.883 156.189 172.767 156.189C169.623 156.189 166.838 156.766 164.356 157.864C161.926 158.957 159.797 160.562 157.953 162.732C156.177 164.828 154.714 167.51 153.63 170.874C152.605 174.143 152.058 178.003 152.058 182.505C152.058 187.014 152.661 190.878 153.788 194.156C154.99 197.521 156.552 200.249 158.424 202.416C160.358 204.563 162.566 206.167 165.063 207.273C167.573 208.384 170.278 208.952 173.223 208.952C175.088 208.952 176.754 208.871 178.229 208.718C179.646 208.529 180.939 208.254 182.115 207.901C183.258 207.516 184.319 207.035 185.304 206.462C186.318 205.828 187.398 205.009 188.541 203.98L188.598 203.929L188.656 203.881C189.439 203.229 190.299 202.691 191.233 202.279ZM376.033 219.931L376.026 219.938C371.316 224.695 365.66 228.397 359.113 231.063C352.533 233.761 345.295 235.076 337.456 235.076C329.614 235.076 322.357 233.76 315.737 231.064C309.193 228.4 303.519 224.701 298.77 219.952L298.756 219.938L298.742 219.924C294.059 215.147 290.43 209.55 287.85 203.172L287.846 203.161L287.841 203.149C285.293 196.732 284.038 189.837 284.038 182.505C284.038 175.173 285.293 168.279 287.841 161.862L287.846 161.85L287.85 161.838C290.431 155.457 294.065 149.876 298.756 145.138L298.763 145.13L298.77 145.123C303.519 140.374 309.193 136.676 315.737 134.011C322.357 131.316 329.614 130 337.456 130C345.299 130 352.541 131.339 359.126 134.083C365.666 136.748 371.319 140.449 376.026 145.203C380.72 149.944 384.334 155.529 386.871 161.916C389.464 168.332 390.744 175.209 390.744 182.505C390.744 189.842 389.465 196.74 386.871 203.16C384.335 209.543 380.725 215.144 376.04 219.924L376.033 219.931ZM358.557 171.096L358.553 171.083C357.481 167.752 355.972 165.062 354.082 162.922L354.069 162.908L354.057 162.893C352.215 160.767 349.943 159.124 347.183 157.962C344.449 156.811 341.232 156.189 337.456 156.189C333.636 156.189 330.371 156.812 327.59 157.966C324.833 159.128 322.536 160.774 320.647 162.908C318.795 165.05 317.303 167.745 316.229 171.083L316.225 171.096C315.16 174.365 314.596 178.153 314.596 182.505C314.596 186.901 315.16 190.735 316.226 194.05C317.298 197.341 318.789 200.019 320.647 202.168C322.531 204.297 324.822 205.939 327.57 207.101C330.358 208.219 333.631 208.821 337.456 208.821C341.237 208.821 344.463 208.219 347.203 207.105C349.954 205.943 352.219 204.303 354.057 202.182L354.069 202.168L354.082 202.154C355.978 200.007 357.486 197.333 358.556 194.05C359.622 190.735 360.186 186.901 360.186 182.505C360.186 178.153 359.622 174.365 358.557 171.096ZM486.64 131.043V234.033H456.473V179.269L429.418 225.501L429.398 225.534C428.791 226.528 428.071 227.484 427.256 228.405C426.431 229.388 425.506 230.281 424.487 231.086L424.435 231.127L424.381 231.167C423.288 231.972 422.109 232.633 420.85 233.148C419.408 233.738 417.894 234.033 416.336 234.033H395.711V131.043H425.878V185.807L452.933 139.575L452.953 139.542C453.543 138.576 454.225 137.636 454.988 136.72L455.029 136.671L455.072 136.623C455.934 135.653 456.883 134.781 457.918 134.013C459.017 133.153 460.214 132.455 461.502 131.928C462.943 131.338 464.458 131.043 466.015 131.043H486.64ZM611.86 131.043V234.033H584.432V184.132L567.214 217.454L567.212 217.458C566.12 219.58 564.556 221.322 562.497 222.524C560.508 223.711 558.29 224.253 555.964 224.253H552.965C550.629 224.253 548.404 223.706 546.393 222.539L546.368 222.525L546.344 222.51C544.323 221.298 542.794 219.553 541.715 217.454L524.498 184.043V234.033H497.07V131.043H517.89C518.898 131.043 519.809 131.066 520.609 131.116C521.669 131.179 522.738 131.373 523.759 131.766C524.885 132.199 525.854 132.871 526.655 133.715C527.525 134.545 528.197 135.554 528.732 136.57L528.746 136.597L553.18 184.75L553.195 184.777C553.614 185.574 554.023 186.385 554.421 187.208C554.875 186.3 555.341 185.412 555.819 184.545L580.184 136.596L580.198 136.57C580.733 135.553 581.387 134.54 582.213 133.714C583.04 132.887 584.025 132.207 585.17 131.766C586.167 131.383 587.205 131.181 588.247 131.116L588.255 131.116L588.262 131.115C589.098 131.066 590.026 131.043 591.039 131.043H611.86ZM709.292 219.938L709.299 219.931L709.306 219.924C713.992 215.144 717.602 209.543 720.138 203.16C722.732 196.74 724.01 189.842 724.01 182.505C724.01 175.209 722.731 168.332 720.138 161.916C717.6 155.529 713.986 149.944 709.292 145.203C704.586 140.449 698.933 136.748 692.392 134.083C685.808 131.339 678.566 130 670.723 130C662.881 130 655.624 131.316 649.004 134.011C642.459 136.676 636.786 140.374 632.037 145.123L632.03 145.13L632.023 145.138C627.331 149.876 623.698 155.457 621.117 161.838L621.112 161.85L621.108 161.862C618.56 168.279 617.305 175.173 617.305 182.505C617.305 189.837 618.56 196.732 621.108 203.149L621.112 203.161L621.117 203.172C623.696 209.55 627.326 215.147 632.009 219.924L632.023 219.938L632.037 219.952C636.786 224.701 642.459 228.4 649.004 231.064C655.624 233.76 662.881 235.076 670.723 235.076C678.562 235.076 685.799 233.761 692.38 231.063C698.926 228.397 704.583 224.695 709.292 219.938ZM691.82 171.083L691.824 171.096C692.888 174.365 693.453 178.153 693.453 182.505C693.453 186.902 692.888 190.736 691.822 194.052C690.752 197.334 689.245 200.008 687.349 202.154L687.336 202.168L687.324 202.182C685.486 204.303 683.221 205.943 680.47 207.105C677.73 208.219 674.504 208.821 670.723 208.821C666.898 208.821 663.625 208.219 660.837 207.101C658.089 205.94 655.798 204.297 653.914 202.168C652.056 200.02 650.565 197.342 649.493 194.052C648.427 190.736 647.862 186.902 647.862 182.505C647.862 178.153 648.427 174.365 649.491 171.096L649.495 171.083C650.57 167.745 652.062 165.049 653.914 162.908C655.803 160.773 658.1 159.128 660.857 157.966C663.638 156.812 666.903 156.189 670.723 156.189C674.498 156.189 677.716 156.811 680.449 157.962C683.209 159.124 685.481 160.767 687.324 162.893L687.336 162.908L687.349 162.922C689.239 165.062 690.748 167.752 691.82 171.083ZM798.304 201.454C799.348 201.454 800.347 201.665 801.279 202.036C802.444 202.453 803.411 203.144 804.196 203.93L804.232 203.966L815.356 215.67L813.281 218.381C809.047 223.915 803.708 228.116 797.318 230.951L797.305 230.957C790.949 233.749 783.574 235.076 775.29 235.076C767.622 235.076 760.603 233.781 754.299 231.107L754.283 231.1L754.266 231.093C748.096 228.408 742.788 224.706 738.393 219.977L738.379 219.962L738.365 219.947C734.032 215.186 730.728 209.595 728.433 203.224L728.429 203.215C726.13 196.788 725.001 189.873 725.001 182.505C725.001 174.983 726.225 167.988 728.728 161.564C731.212 155.144 734.73 149.553 739.299 144.841C743.874 140.123 749.34 136.474 755.647 133.885C762.004 131.276 768.938 130 776.398 130C780.194 130 783.806 130.346 787.223 131.055C790.616 131.708 793.813 132.645 796.806 133.878C799.79 135.064 802.563 136.521 805.115 138.254C806.788 139.39 808.348 140.599 809.791 141.882V131.043H893.287V156.515H866.557V234.033H836.521V156.515H809.791V152.276L804.741 159.054L804.709 159.094C804.027 159.962 803.24 160.743 802.367 161.441L802.302 161.494L802.234 161.543C800.649 162.706 798.786 163.035 797.13 163.035C795.731 163.035 794.379 162.718 793.125 162.091C792.312 161.685 791.474 161.215 790.611 160.688L790.544 160.647L790.478 160.603C789.766 160.128 788.959 159.623 788.054 159.089L787.961 159.033L787.87 158.973C787.279 158.579 786.469 158.167 785.387 157.77L785.31 157.742L785.235 157.711C784.274 157.313 783.036 156.944 781.481 156.633L781.472 156.631L781.462 156.629C780.102 156.35 778.384 156.189 776.268 156.189C773.124 156.189 770.339 156.766 767.857 157.864C765.427 158.957 763.297 160.563 761.452 162.734C759.677 164.829 758.215 167.511 757.131 170.873C756.107 174.143 755.559 178.003 755.559 182.505C755.559 187.014 756.162 190.878 757.29 194.156C758.491 197.521 760.053 200.248 761.925 202.416C763.859 204.562 766.067 206.167 768.565 207.273C771.074 208.384 773.779 208.952 776.724 208.952C778.589 208.952 780.255 208.871 781.73 208.718C783.148 208.529 784.44 208.254 785.616 207.901C786.759 207.516 787.82 207.035 788.805 206.462C789.82 205.828 790.9 205.009 792.042 203.98L792.099 203.929L792.157 203.881C792.94 203.229 793.8 202.691 794.734 202.279C795.843 201.744 797.045 201.454 798.304 201.454ZM945.259 207.05L945.256 207.052C944.765 207.564 943.91 208.146 942.456 208.653C941.16 209.105 939.257 209.408 936.602 209.408H927.824V193.677H936.602C939.276 193.677 941.209 193.961 942.536 194.393L942.576 194.406L942.616 194.418C944.018 194.842 944.81 195.371 945.256 195.837L945.313 195.896L945.372 195.952C945.921 196.479 946.286 197.092 946.492 197.872C946.783 198.974 946.945 200.233 946.945 201.673C946.945 202.847 946.795 203.938 946.508 204.958C946.31 205.661 945.928 206.353 945.259 207.05ZM965.809 224.656L965.821 224.646L965.833 224.635C969.365 221.552 972.069 217.849 973.915 213.561C975.805 209.227 976.721 204.507 976.721 199.456C976.721 195.432 975.973 191.571 974.469 187.905C972.901 184.042 970.405 180.718 967.079 177.944C963.706 175.086 959.458 172.934 954.486 171.386C949.422 169.795 943.43 169.052 936.602 169.052H927.824V131.043H897.788V234.033H936.602C942.637 234.033 948.157 233.25 953.112 231.614C958.007 229.998 962.268 227.698 965.809 224.656ZM179.609 357.033H209.776V254.043H121.781V357.033H151.948V278.407H179.609V357.033ZM267.084 281.408L267.131 281.455L267.18 281.501C268.056 282.321 268.712 283.307 269.155 284.518C269.625 285.8 269.89 287.305 269.89 289.076C269.89 293.312 268.813 296.052 267.166 297.841C265.73 299.401 262.94 300.658 257.721 300.658H250.247V278.538H257.721C260.188 278.538 262.111 278.848 263.579 279.359L263.591 279.363L263.604 279.367C265.165 279.899 266.281 280.605 267.084 281.408ZM275.981 322.737L275.992 322.734L276.002 322.73C281.245 320.983 285.734 318.518 289.348 315.255C292.947 312.006 295.632 308.09 297.377 303.551C297.485 303.27 297.59 302.987 297.691 302.702C297.65 303.629 297.629 304.564 297.629 305.505C297.629 312.837 298.884 319.732 301.432 326.149L301.437 326.161L301.442 326.172C304.021 332.55 307.651 338.147 312.333 342.924L312.347 342.938L312.361 342.952C317.11 347.701 322.784 351.4 329.328 354.064C335.948 356.76 343.206 358.076 351.047 358.076C358.887 358.076 366.126 356.76 372.707 354.062C379.252 351.396 384.908 347.695 389.617 342.938L389.624 342.931L389.631 342.924C394.316 338.144 397.926 332.543 400.462 326.16C403.057 319.74 404.335 312.842 404.335 305.505C404.335 298.209 403.056 291.332 400.462 284.916C397.925 278.529 394.311 272.944 389.617 268.203C384.91 263.449 379.258 259.749 372.718 257.083C366.133 254.339 358.891 253 351.047 253C343.206 253 335.948 254.316 329.328 257.011C322.784 259.676 317.11 263.374 312.361 268.123L312.354 268.13L312.347 268.138C307.656 272.877 304.022 278.457 301.442 284.838L301.437 284.85L301.432 284.862C300.866 286.287 300.364 287.735 299.926 289.207L299.926 289.076C299.926 284.229 299.108 279.645 297.435 275.363C295.721 270.979 293.047 267.181 289.467 263.995C285.888 260.772 281.417 258.356 276.187 256.657C270.891 254.879 264.706 254.043 257.721 254.043H220.211V357.033H250.247V325.283H257.721C264.586 325.283 270.698 324.466 275.981 322.737ZM372.144 294.083L372.148 294.096C373.213 297.365 373.777 301.153 373.777 305.505C373.777 309.901 373.213 313.735 372.147 317.05C371.077 320.333 369.57 323.007 367.673 325.154L367.661 325.168L367.648 325.182C365.81 327.303 363.546 328.943 360.795 330.105C358.054 331.219 354.828 331.821 351.047 331.821C347.222 331.821 343.949 331.219 341.161 330.101C338.413 328.939 336.123 327.297 334.238 325.168C332.38 323.02 330.889 320.341 329.817 317.05C328.751 313.735 328.187 309.901 328.187 305.505C328.187 301.153 328.751 297.365 329.816 294.096L329.82 294.083C330.894 290.745 332.386 288.05 334.238 285.908C336.127 283.774 338.424 282.129 341.181 280.966C343.962 279.812 347.227 279.19 351.047 279.19C354.823 279.19 358.041 279.811 360.774 280.962C363.534 282.125 365.806 283.767 367.648 285.893L367.661 285.908L367.673 285.922C369.563 288.062 371.072 290.753 372.144 294.083ZM469.329 317.459V293.16H439.469V278.994H478.456V254.043H409.303V357.033H478.456V332.082H439.469V317.459H469.329ZM552.917 357.033H579.783L555.311 311.917L555.297 311.892C553.367 308.457 551.194 305.583 548.72 303.42C548.191 302.948 547.641 302.507 547.07 302.095C548.578 300.798 549.874 299.264 550.963 297.52L550.968 297.513L550.972 297.507L570.53 265.938V279.516H597.26V357.033H627.296V279.516H654.026V254.043H551.809C549.054 254.043 546.459 254.76 544.241 256.373C542.339 257.756 540.771 259.513 539.521 261.579L522.334 290.159L522.319 290.182C521.57 291.381 520.96 291.846 520.617 292.018L520.591 292.031L520.565 292.045C520.085 292.294 519.336 292.508 518.168 292.508H514.084V254.043H484.048V357.033H514.084V316.612H519.994C521.622 316.612 522.647 316.864 523.257 317.149C523.481 317.253 524.12 317.691 524.948 319.203L524.958 319.221L540.748 348.91L540.783 348.971C542.093 351.237 543.646 353.185 545.514 354.631C547.663 356.295 550.212 357.033 552.917 357.033ZM669.175 349.647L673.893 335.714H704.273L709.015 349.719L709.084 349.877C709.954 351.865 711.255 353.555 712.966 354.886L713.003 354.915L713.041 354.943C715.089 356.46 717.546 357.033 720.051 357.033H742.969L703.103 254.043H675.063L635.196 357.033H658.245C660.8 357.033 663.238 356.349 665.28 354.744L665.288 354.738L665.295 354.732C666.981 353.395 668.351 351.745 669.14 349.736L669.175 349.647ZM688.603 292.209C688.769 291.788 688.937 291.349 689.107 290.894C689.193 291.124 689.279 291.35 689.365 291.572C689.431 291.744 689.497 291.914 689.563 292.081L696.546 312.719H681.681L688.603 292.209Z" fill="white"/>
</svg>
