<svg width="1440" height="749" viewBox="0 0 1440 749" fill="none" xmlns="http://www.w3.org/2000/svg">
<path fill-rule="evenodd" clip-rule="evenodd" d="M1440 0H0V749H1440V0ZM211.325 420H238.633V302.978H211.325V420ZM362.972 384.901C365.917 377.726 367.389 369.909 367.389 361.449C367.389 353.042 365.917 345.278 362.972 338.156C360.081 330.981 355.984 324.797 350.683 319.603C345.382 314.409 338.983 310.34 331.487 307.395C324.044 304.45 315.772 302.978 306.669 302.978H261.209V420H306.669C315.772 420 324.044 418.554 331.487 415.663C338.983 412.718 345.382 408.648 350.683 403.455C355.984 398.207 360.081 392.023 362.972 384.901ZM337.351 345.787C338.85 350.445 339.6 355.666 339.6 361.449C339.6 367.285 338.85 372.532 337.351 377.191C335.851 381.849 333.683 385.812 330.845 389.078C328.061 392.291 324.634 394.78 320.564 396.547C316.495 398.261 311.863 399.118 306.669 399.118H288.518V323.86H306.669C311.863 323.86 316.495 324.744 320.564 326.51C324.634 328.224 328.061 330.714 330.845 333.98C333.683 337.192 335.851 341.128 337.351 345.787ZM410.719 351.168V323.86H458.749V302.978H383.411V420H458.749V399.118H410.719V371.247H447.505V351.168H410.719ZM526.496 343.216L537.339 375.263H505.292L516.055 343.377C516.858 341.342 517.714 338.933 518.625 336.148C519.535 333.364 520.392 330.339 521.195 327.073C522.105 330.285 523.015 333.284 523.926 336.068C524.381 337.434 524.822 338.712 525.25 339.903C525.679 341.095 526.094 342.199 526.496 343.216ZM559.426 420H580.469L535.17 302.978H507.38L462.081 420H483.285C485.534 420 487.408 419.411 488.907 418.233C490.46 417.001 491.531 415.636 492.12 414.137L499.027 393.736H543.523L550.43 414.137C551.18 415.85 552.278 417.269 553.724 418.394C555.169 419.464 557.07 420 559.426 420ZM723.146 384.901C726.091 377.726 727.563 369.909 727.563 361.449C727.563 353.042 726.091 345.278 723.146 338.156C720.254 330.981 716.158 324.797 710.857 319.603C705.556 314.409 699.158 310.34 691.661 307.395C684.218 304.45 675.946 302.978 666.843 302.978H621.383V420H666.843C675.946 420 684.218 418.554 691.661 415.663C699.158 412.718 705.556 408.648 710.857 403.455C716.158 398.207 720.254 392.023 723.146 384.901ZM697.524 345.787C699.023 350.445 699.773 355.666 699.773 361.449C699.773 367.285 699.023 372.532 697.524 377.191C696.025 381.849 693.856 385.812 691.019 389.078C688.234 392.291 684.808 394.78 680.738 396.547C676.668 398.261 672.037 399.118 666.843 399.118H648.691V323.86H666.843C672.037 323.86 676.668 324.744 680.738 326.51C684.808 328.224 688.234 330.714 691.019 333.98C693.856 337.192 696.025 341.128 697.524 345.787ZM743.585 420H770.893V302.978H743.585V420ZM891.297 359.36H849.692V374.299C849.692 375.691 850.174 376.843 851.138 377.753C852.102 378.663 853.44 379.118 855.154 379.118H866.72V396.869C864.203 397.939 861.606 398.796 858.929 399.438C856.305 400.081 853.36 400.402 850.094 400.402C844.793 400.402 839.947 399.546 835.556 397.833C831.219 396.065 827.471 393.522 824.312 390.202C821.206 386.882 818.797 382.813 817.083 377.994C815.37 373.175 814.513 367.66 814.513 361.449C814.513 355.826 815.29 350.74 816.842 346.188C818.395 341.583 820.59 337.648 823.428 334.381C826.32 331.115 829.8 328.599 833.87 326.832C837.939 325.011 842.517 324.101 847.604 324.101C850.335 324.101 852.798 324.235 854.993 324.502C857.188 324.77 859.277 325.199 861.258 325.788C863.239 326.376 865.167 327.153 867.041 328.117C868.968 329.027 871.003 330.125 873.145 331.41C875.394 332.802 877.482 333.284 879.41 332.855C881.391 332.427 882.997 331.276 884.229 329.402L892.1 317.435C889.744 315.186 887.067 313.097 884.068 311.17C881.07 309.242 877.75 307.582 874.109 306.19C870.521 304.798 866.586 303.7 862.302 302.897C858.019 302.094 853.44 301.692 848.568 301.692C839.144 301.692 830.604 303.165 822.946 306.11C815.343 309.055 808.837 313.178 803.429 318.479C798.075 323.78 793.952 330.098 791.061 337.434C788.169 344.716 786.723 352.721 786.723 361.449C786.723 370.016 788.25 377.967 791.301 385.303C794.354 392.585 798.69 398.903 804.313 404.258C809.935 409.559 816.682 413.735 824.553 416.787C832.478 419.786 841.259 421.285 850.897 421.285C858.286 421.285 865.354 420.294 872.101 418.313C878.901 416.332 885.3 413.146 891.297 408.755V359.36ZM909.554 420H936.862V302.978H909.554V420ZM1010.6 324.502H1043.53V302.978H950.523V324.502H983.454V420H1010.6V324.502ZM1096.88 343.216L1107.72 375.263H1075.67L1086.43 343.377C1086.74 342.593 1087.06 341.753 1087.39 340.857C1087.91 339.429 1088.44 337.859 1089 336.148C1089.62 334.278 1090.2 332.299 1090.77 330.211C1091.04 329.191 1091.31 328.145 1091.57 327.073C1092.48 330.285 1093.4 333.284 1094.31 336.068C1094.93 337.953 1095.54 339.672 1096.11 341.226C1096.37 341.923 1096.63 342.586 1096.88 343.216ZM1129.81 420H1150.85L1105.55 302.978H1077.76L1032.46 420H1053.67C1055.91 420 1057.79 419.411 1059.29 418.233C1060.84 417.001 1061.91 415.636 1062.5 414.137L1069.41 393.736H1113.9L1120.81 414.137C1121.56 415.85 1122.66 417.269 1124.1 418.394C1125.55 419.464 1127.45 420 1129.81 420ZM1230.59 420V398.314H1187.22V302.978H1160.08V420H1230.59Z" fill="white"/>
</svg>
