<svg width="721" height="500" viewBox="0 0 721 500" fill="none" xmlns="http://www.w3.org/2000/svg">
<path fill-rule="evenodd" clip-rule="evenodd" d="M720.192 0H0.192383V500H720.192V0ZM167.779 202V248.151H156.43V223.167L147.287 240.864C146.833 241.745 146.193 242.453 145.358 242.94C144.552 243.422 143.646 243.647 142.676 243.647H141.295C140.322 243.647 139.41 243.42 138.59 242.944L138.583 242.94L138.576 242.935C137.76 242.446 137.134 241.738 136.684 240.864L127.541 223.12V248.151H116.192V202H125.14C125.596 202 126.002 202.01 126.354 202.032C126.79 202.058 127.215 202.137 127.612 202.29C128.041 202.455 128.412 202.713 128.722 203.042C129.061 203.362 129.335 203.767 129.565 204.203L129.569 204.21L140.83 226.401C141.225 227.154 141.601 227.933 141.958 228.738C142.343 227.888 142.749 227.076 143.177 226.3L154.402 204.21L154.406 204.203C154.637 203.765 154.903 203.36 155.22 203.042C155.545 202.717 155.924 202.457 156.359 202.29C156.749 202.14 157.161 202.059 157.585 202.032L157.59 202.032C157.959 202.01 158.374 202 158.831 202H167.779ZM157.658 219.966C157.64 220.62 157.63 221.227 157.63 221.788C157.63 221.482 157.633 221.162 157.639 220.829C157.643 220.551 157.65 220.263 157.658 219.966ZM142.625 230.244C142.408 230.771 142.195 231.305 141.986 231.847C142.326 230.966 142.676 230.106 143.037 229.265C142.898 229.588 142.761 229.914 142.625 230.244ZM193.393 212.258C193.733 213.459 194.073 214.58 194.414 215.621C194.293 215.25 194.171 214.869 194.049 214.478C193.83 213.771 193.612 213.031 193.393 212.258ZM281.963 224.313L281.907 224.286C281.428 224.061 280.916 223.875 280.371 223.728C280.568 223.649 280.761 223.564 280.95 223.474C281.569 223.181 282.147 222.836 282.683 222.437C283.3 221.979 283.839 221.412 284.301 220.737L281.963 224.313ZM284.485 220.455L284.301 220.737C284.364 220.645 284.425 220.551 284.485 220.455ZM399.335 218.898L399.334 218.904C399.334 218.907 399.333 218.91 399.333 218.913L399.333 218.918C399.274 220.17 399.245 221.364 399.245 222.497C399.245 221.356 399.275 220.155 399.335 218.894L399.335 218.898ZM382.459 231.896C382.999 230.797 383.529 229.837 384.048 229.017C383.564 229.782 383.07 230.667 382.568 231.675C382.531 231.748 382.496 231.822 382.459 231.896ZM189.125 229.069L192.602 218.767C192.866 218.098 193.141 217.333 193.428 216.473C193.712 217.304 193.983 218.049 194.242 218.707L197.748 229.069H189.125ZM207.685 248.205H217.312L199.443 202.043H187.401L169.532 248.205H179.219C180.279 248.205 181.256 247.923 182.065 247.287L182.069 247.283C182.778 246.721 183.329 246.048 183.643 245.248L183.654 245.222L185.968 238.386H200.875L203.197 245.243L203.218 245.291C203.577 246.111 204.111 246.804 204.813 247.351L204.825 247.359L204.836 247.368C205.64 247.963 206.626 248.205 207.685 248.205ZM239.085 213.56L239.1 213.574L239.114 213.588C239.593 214.035 239.95 214.575 240.187 215.224C240.432 215.894 240.564 216.662 240.564 217.542C240.564 219.601 240.039 221.036 239.141 222.011C238.307 222.917 236.809 223.514 234.322 223.514H230.243V212.051H234.322C235.509 212.051 236.469 212.2 237.229 212.465L237.237 212.467C238.033 212.738 238.636 213.11 239.085 213.56ZM242.535 232.44L242.541 232.438C244.889 231.656 246.875 230.56 248.462 229.127C250.045 227.698 251.224 225.978 251.993 223.98C252.752 222.005 253.124 219.855 253.124 217.542C253.124 215.382 252.76 213.351 252.02 211.458C251.269 209.535 250.096 207.867 248.519 206.464C246.949 205.05 244.972 203.976 242.628 203.215C240.27 202.423 237.493 202.043 234.322 202.043H217.683V248.205H230.243V233.581H234.322C237.436 233.581 240.181 233.211 242.535 232.44ZM286.946 248.205H298.25L287.491 228.37L287.487 228.363C286.622 226.822 285.662 225.562 284.591 224.626C284.147 224.23 283.668 223.883 283.154 223.582C283.237 223.524 283.32 223.465 283.401 223.404C284.232 222.787 284.932 222.011 285.506 221.094L297.309 202.043H286.436C285.28 202.043 284.222 202.342 283.325 202.995C282.523 203.577 281.857 204.321 281.321 205.207L281.319 205.21L273.397 218.384C273.011 219.002 272.651 219.319 272.354 219.467L272.346 219.471L272.338 219.475C272.007 219.647 271.556 219.76 270.941 219.76H268.423V202.043H255.863V248.205H268.423V229.588H271.782C272.591 229.588 273.163 229.712 273.555 229.895C273.829 230.023 274.209 230.355 274.625 231.116L274.628 231.121L281.899 244.792L281.909 244.81C282.484 245.805 283.149 246.63 283.926 247.232C284.789 247.9 285.82 248.205 286.946 248.205ZM325.402 229.978V220.06H311.649V212.261H329.606V202.043H299.029V248.205H329.606V237.987H311.649V229.978H325.402ZM354.994 212.501H367.306V202.043H330.123V212.501H342.434V248.205H354.994V212.501ZM410.659 248.205V202.043H401.797C401.161 202.043 400.546 202.163 399.959 202.403C399.419 202.625 398.916 202.918 398.453 203.281C398.01 203.609 397.603 203.983 397.232 204.4L397.22 204.414L397.207 204.429C396.873 204.83 396.578 205.237 396.324 205.653L396.318 205.663L383.02 228.386C382.901 228.575 382.781 228.77 382.661 228.972C382.669 228.547 382.673 228.13 382.673 227.722V202.043H370.053V248.205H378.915C379.55 248.205 380.166 248.085 380.753 247.845C381.284 247.628 381.782 247.349 382.242 247.009L382.259 246.997L382.274 246.985C382.713 246.639 383.109 246.255 383.462 245.834C383.818 245.432 384.128 245.02 384.388 244.595L384.394 244.586L397.691 221.862C397.811 221.674 397.93 221.479 398.05 221.279C398.043 221.692 398.039 222.098 398.039 222.497V248.205H410.659ZM457.344 248.205V202.043H444.724V220.331H429.357V202.043H416.737V248.205H429.357V229.708H444.724V248.205H457.344ZM476.042 211.991H493.398V202.043H463.422V248.205H476.042V211.991Z" fill="white"/>
</svg>
