<svg width="720" height="500" viewBox="0 0 720 500" fill="none" xmlns="http://www.w3.org/2000/svg">
<path fill-rule="evenodd" clip-rule="evenodd" d="M720 0L0 0L0 500L720 500L720 0ZM142.501 214.683L142.517 214.699L142.534 214.715C142.992 215.143 143.333 215.659 143.561 216.283C143.799 216.931 143.928 217.679 143.928 218.541C143.928 220.57 143.41 221.957 142.551 222.89C141.765 223.744 140.326 224.336 137.862 224.336H133.959V213.226H137.862C139.035 213.226 139.974 213.373 140.711 213.63L140.72 213.633C141.495 213.896 142.073 214.256 142.501 214.683ZM146.13 233.608L146.137 233.605C148.503 232.817 150.512 231.71 152.121 230.257C153.725 228.81 154.92 227.066 155.698 225.043C156.467 223.045 156.841 220.873 156.841 218.541C156.841 216.361 156.474 214.307 155.726 212.392C154.964 210.442 153.775 208.752 152.177 207.331C150.585 205.897 148.586 204.813 146.223 204.046C143.843 203.246 141.046 202.865 137.862 202.865H121.045L121.045 249.382H133.959V234.757H137.862C140.989 234.757 143.754 234.385 146.13 233.608ZM174.02 219.826C174.233 219.285 174.453 218.682 174.681 218.017C174.904 218.655 175.12 219.239 175.327 219.767L178.753 229.892H170.622L174.02 219.826ZM188.938 249.382H198.822L197.253 245.328C197.697 245.63 198.16 245.919 198.642 246.196L198.651 246.2C199.958 246.939 201.346 247.58 202.813 248.124L202.824 248.128L202.835 248.132C204.326 248.657 205.867 249.066 207.458 249.359C209.059 249.654 210.655 249.802 212.243 249.802C215.07 249.802 217.632 249.415 219.909 248.613L219.92 248.609C222.165 247.796 224.098 246.68 225.691 245.242C227.277 243.81 228.487 242.126 229.309 240.196C230.147 238.253 230.561 236.175 230.561 233.976C230.561 232.848 230.378 231.769 230.001 230.749C229.655 229.743 229.162 228.813 228.522 227.964C227.906 227.1 227.16 226.323 226.294 225.634C225.995 225.389 225.688 225.155 225.371 224.933C226.521 223.955 227.437 222.816 228.099 221.51C229.062 219.626 229.54 217.589 229.54 215.418C229.54 213.488 229.113 211.694 228.241 210.061C227.395 208.419 226.178 207.029 224.618 205.892C223.062 204.759 221.206 203.905 219.08 203.309C216.952 202.686 214.599 202.384 212.032 202.384C208.996 202.384 206.144 202.824 203.487 203.716C200.867 204.583 198.612 205.793 196.755 207.366L195.903 208.088L198.974 213.828L198.999 213.868C199.355 214.437 199.772 214.947 200.272 215.322L200.288 215.334L200.305 215.345C200.931 215.787 201.659 215.959 202.393 215.959C203.143 215.959 203.876 215.74 204.572 215.392L204.581 215.388L204.589 215.384C205.156 215.091 205.804 214.767 206.534 214.411C207.217 214.089 208.005 213.794 208.906 213.531L208.915 213.529L208.923 213.526C209.744 213.275 210.743 213.136 211.942 213.136C214.057 213.136 215.392 213.53 216.171 214.1L216.178 214.105L216.184 214.11C216.941 214.65 217.287 215.322 217.287 216.259C217.287 217.473 216.862 218.272 216.047 218.848C215.167 219.451 213.634 219.862 211.222 219.862H204.279L204.32 230.493H212.075L212.087 230.493C213.113 230.475 214.015 230.567 214.804 230.756L214.811 230.757C215.614 230.945 216.246 231.224 216.738 231.566L216.757 231.58L216.777 231.593C217.28 231.918 217.635 232.303 217.876 232.746L217.884 232.76L217.892 232.774C218.137 233.199 218.278 233.716 218.278 234.367C218.278 235.342 218.135 236.078 217.906 236.623C217.673 237.176 217.345 237.601 216.922 237.928L216.914 237.935L216.905 237.942C216.488 238.276 215.941 238.547 215.225 238.728C214.468 238.899 213.578 238.991 212.543 238.991C211.088 238.991 209.891 238.813 208.926 238.491C207.845 238.131 206.921 237.74 206.144 237.325C205.312 236.87 204.572 236.455 203.923 236.082C203.1 235.608 202.224 235.327 201.312 235.327C200.601 235.327 199.929 235.515 199.319 235.878C198.78 236.192 198.32 236.604 197.961 237.113L197.941 237.142L195.548 240.923L180.815 202.865H168.531L150.525 249.382H160.469C161.562 249.382 162.579 249.091 163.425 248.426L163.43 248.422C164.158 247.845 164.731 247.147 165.059 246.313L165.071 246.282L167.346 239.562H182.001L184.285 246.307L184.308 246.362C184.679 247.209 185.231 247.925 185.957 248.49L185.97 248.5L185.983 248.51C186.826 249.134 187.852 249.382 188.938 249.382ZM255.464 214.683L255.481 214.699L255.497 214.715C255.955 215.143 256.297 215.659 256.525 216.283C256.762 216.931 256.891 217.679 256.891 218.541C256.891 220.57 256.374 221.957 255.515 222.89C254.729 223.744 253.289 224.336 250.826 224.336H246.922V213.226H250.826C251.998 213.226 252.938 213.373 253.675 213.63L253.684 213.633C254.458 213.896 255.037 214.256 255.464 214.683ZM259.093 233.608L259.101 233.605C261.467 232.817 263.476 231.71 265.085 230.257C266.689 228.81 267.884 227.066 268.662 225.043C269.43 223.045 269.805 220.873 269.805 218.541C269.805 216.361 269.438 214.307 268.689 212.392C267.927 210.442 266.738 208.752 265.141 207.331C263.549 205.898 261.549 204.813 259.187 204.046C256.807 203.246 254.01 202.865 250.826 202.865H234.009V249.382H246.922V234.757H250.826C253.953 234.757 256.718 234.385 259.093 233.608ZM286.984 219.826C287.196 219.285 287.417 218.682 287.645 218.017C287.868 218.655 288.083 219.239 288.291 219.767L291.717 229.892H283.586L286.984 219.826ZM298.947 248.51C299.79 249.134 300.816 249.382 301.901 249.382H329.14C331.881 249.382 334.373 249.026 336.6 248.291C338.807 247.563 340.715 246.53 342.293 245.174L342.301 245.167C343.877 243.791 345.081 242.142 345.904 240.23C346.747 238.298 347.159 236.186 347.159 233.916C347.159 232.12 346.825 230.401 346.155 228.769C345.464 227.064 344.361 225.594 342.882 224.36C341.386 223.092 339.488 222.126 337.24 221.426C334.965 220.711 332.254 220.372 329.14 220.372H324.636V213.226H345.477V202.865H311.723V249.218L293.779 202.865H281.495L263.489 249.382L273.433 249.382C274.526 249.382 275.543 249.091 276.389 248.426L276.394 248.422C277.122 247.845 277.695 247.147 278.023 246.313L278.035 246.282L280.31 239.562H294.964L297.248 246.307L297.272 246.362C297.643 247.209 298.195 247.925 298.921 248.49L298.934 248.5L298.947 248.51ZM333.46 237.733L333.459 237.734C333.169 238.036 332.706 238.337 331.988 238.587C331.325 238.819 330.393 238.961 329.14 238.961H324.636V230.793H329.14C330.399 230.793 331.342 230.927 332.016 231.146L332.03 231.15L332.044 231.155C332.743 231.366 333.184 231.644 333.459 231.93L333.478 231.95L333.499 231.97C333.813 232.272 334.024 232.629 334.141 233.068C334.287 233.619 334.365 234.24 334.365 234.937C334.365 235.518 334.291 236.062 334.146 236.575C334.033 236.978 333.816 237.362 333.46 237.733ZM389.141 243.026L389.146 243.021C391.26 240.864 392.891 238.336 394.037 235.45C395.208 232.552 395.787 229.433 395.787 226.108C395.787 222.802 395.208 219.694 394.037 216.797C392.89 213.909 391.259 211.389 389.141 209.25C387.02 207.108 384.47 205.437 381.51 204.231C378.539 202.992 375.264 202.384 371.703 202.384C368.143 202.384 364.86 202.982 361.873 204.198C358.911 205.404 356.35 207.074 354.209 209.215L354.204 209.22C352.088 211.358 350.448 213.876 349.281 216.761L349.278 216.77C348.127 219.667 347.558 222.785 347.558 226.108C347.558 229.432 348.127 232.549 349.278 235.447L349.281 235.455C350.447 238.339 352.086 240.866 354.2 243.021L354.209 243.031C356.35 245.172 358.911 246.843 361.873 248.049C364.86 249.265 368.143 249.862 371.703 249.862C375.263 249.862 378.537 249.265 381.506 248.047C384.468 246.841 387.019 245.17 389.141 243.026ZM394.037 235.45L394.035 235.455L392.754 234.937L394.038 235.447L394.037 235.45ZM381.859 220.706L381.86 220.71C382.368 222.27 382.633 224.064 382.633 226.108C382.633 228.172 382.368 229.986 381.86 231.567C381.351 233.132 380.627 234.421 379.706 235.464L379.698 235.473C378.802 236.506 377.699 237.303 376.369 237.865C375.042 238.405 373.494 238.69 371.703 238.69C369.891 238.69 368.323 238.405 366.974 237.864C365.644 237.302 364.53 236.505 363.614 235.469C362.711 234.426 361.996 233.135 361.486 231.567C360.977 229.986 360.712 228.172 360.712 226.108C360.712 224.064 360.978 222.27 361.485 220.71L361.487 220.706C361.998 219.117 362.714 217.818 363.614 216.778C364.532 215.74 365.648 214.942 366.981 214.38C368.327 213.821 369.893 213.526 371.703 213.526C373.493 213.526 375.037 213.821 376.362 214.379C377.696 214.941 378.801 215.738 379.698 216.773L379.706 216.783C380.624 217.823 381.348 219.12 381.859 220.706ZM419.834 213.676H432.146V202.865H394.608V213.676H406.92V249.382H419.834V213.676ZM462.673 248.372C463.571 249.067 464.642 249.382 465.801 249.382H481.882C482.975 249.382 483.992 249.091 484.838 248.426L484.843 248.422C485.571 247.845 486.144 247.147 486.472 246.313L486.484 246.282L488.759 239.562H503.414L505.697 246.307L505.721 246.362C506.092 247.209 506.644 247.925 507.37 248.49L507.383 248.5L507.396 248.51C508.239 249.134 509.265 249.382 510.351 249.382H520.235L502.228 202.865H489.944L474.213 243.503L466.501 229.284L466.496 229.275C465.624 227.724 464.653 226.446 463.563 225.493C463.178 225.149 462.766 224.841 462.329 224.569L462.361 224.545C463.211 223.913 463.926 223.121 464.511 222.186L464.514 222.181L476.481 202.865H465.291C464.104 202.865 463.007 203.172 462.076 203.85C461.254 204.448 460.572 205.21 460.025 206.114L460.023 206.117L452.105 219.283L452.1 219.292C451.726 219.891 451.388 220.179 451.129 220.308L451.12 220.312L451.111 220.317C450.81 220.473 450.389 220.582 449.795 220.582H447.454V202.865L434.54 202.865V249.382L447.454 249.382V230.763H450.636C451.429 230.763 451.973 230.886 452.334 231.054C452.561 231.16 452.917 231.456 453.324 232.2L453.327 232.205L460.599 245.878L460.611 245.899C461.193 246.907 461.873 247.752 462.673 248.372ZM495.433 219.827C495.646 219.285 495.866 218.682 496.094 218.017C496.317 218.655 496.533 219.239 496.74 219.767L500.166 229.892H492.035L495.433 219.827Z" fill="white"/>
</svg>
