<svg width="408" height="357" viewBox="0 0 408 357" fill="none" xmlns="http://www.w3.org/2000/svg">
<path d="M201.069 44.3361C204.476 46.0964 208.644 44.7761 210.407 41.3755C212.17 37.9748 210.848 33.8141 207.441 32.0537C204.035 30.2934 199.867 31.6136 198.104 35.0143C196.341 38.3749 197.703 42.5757 201.069 44.3361Z" fill="#CC1612"/>
<path d="M204.259 76.3898C183.129 76.3898 166 59.2894 166 38.1949C166 17.1004 183.129 0 204.259 0C225.389 0 242.518 17.1004 242.518 38.1949C242.518 59.2894 225.389 76.3898 204.259 76.3898Z" fill="url(#paint0_radial)"/>
<path d="M132.792 124.05C134.88 125.129 137.434 124.32 138.514 122.236C139.595 120.152 138.784 117.602 136.697 116.523C134.609 115.445 132.055 116.254 130.975 118.338C129.894 120.397 130.729 122.971 132.792 124.05Z" fill="#CC1612"/>
<path d="M134.747 143.692C121.798 143.692 111.302 133.213 111.302 120.287C111.302 107.36 121.798 96.8812 134.747 96.8812C147.695 96.8812 158.192 107.36 158.192 120.287C158.192 133.213 147.695 143.692 134.747 143.692Z" fill="url(#paint1_radial)"/>
<path d="M291.871 64.8478L235.681 70.4466L248.579 81.7905C219.417 106.291 118.305 186.225 0.106445 222.537C0.106445 222.537 163.486 204.483 279.43 108.952L291.734 119.769L291.871 64.8478Z" fill="#CC1612"/>
<g opacity="0.2">
<path d="M28.2876 356.331L1.93408 343.395L2.07666 268.184L28.4539 281.097L28.2876 356.331Z" fill="#AC0400"/>
<path d="M28.454 281.098L2.07678 268.184L64.8119 260.225L91.1654 273.162L28.454 281.098Z" fill="#E02521"/>
<path d="M91.1654 273.161L91.0228 348.395L28.2877 356.332L28.4541 281.098L91.1654 273.161Z" fill="#CE211D"/>
</g>
<g opacity="0.4">
<path d="M123.725 339.618L98.6978 327.348L98.8783 235.717L123.906 248.008L123.725 339.618Z" fill="#AC0400"/>
<path d="M123.905 248.008L98.8777 235.717L158.433 228.189L183.46 240.459L123.905 248.008Z" fill="#E02521"/>
<path d="M183.461 240.459L183.28 332.069L123.725 339.618L123.905 248.008L183.461 240.459Z" fill="#CE211D"/>
</g>
<g opacity="0.7">
<path d="M220.512 329.171L190.637 313.807L190.88 186.776L220.782 202.141L220.512 329.171Z" fill="#AC0400"/>
<path d="M220.781 202.141L190.879 186.776L261.997 177.351L291.871 192.715L220.781 202.141Z" fill="#E02521"/>
<path d="M291.872 192.715L291.63 319.718L220.512 329.171L220.781 202.141L291.872 192.715Z" fill="#CE211D"/>
</g>
<path d="M330.697 316.705L298.652 300.906L299.143 66.6594L331.188 82.4589L330.697 316.705Z" fill="#AC0400"/>
<path d="M331.188 82.459L299.144 66.6595L375.397 56.939L407.471 72.7384L331.188 82.459Z" fill="#E02521"/>
<path d="M407.47 72.7384L406.979 306.985L330.697 316.705L331.188 82.459L407.47 72.7384Z" fill="#CE211D"/>
<defs>
<radialGradient id="paint0_radial" cx="0" cy="0" r="1" gradientUnits="userSpaceOnUse" gradientTransform="translate(204.259 38.1945) rotate(180) scale(38.2503 38.186)">
<stop stop-color="#CC1612" stop-opacity="0.25"/>
<stop offset="1" stop-color="white" stop-opacity="0"/>
</radialGradient>
<radialGradient id="paint1_radial" cx="0" cy="0" r="1" gradientUnits="userSpaceOnUse" gradientTransform="translate(134.747 120.287) rotate(180) scale(23.4395 23.4001)">
<stop stop-color="#CC1612" stop-opacity="0.25"/>
<stop offset="1" stop-color="white" stop-opacity="0"/>
</radialGradient>
</defs>
</svg>
